<?xml version="1.0" encoding="UTF-8"?>
<svg version="1.1" xmlns="http://www.w3.org/2000/svg" width="492" height="431">
<path d="M0 0 C162.36 0 324.72 0 492 0 C492 142.23 492 284.46 492 431 C329.64 431 167.28 431 0 431 C0 288.77 0 146.54 0 0 Z " fill="#FEFEFE" transform="translate(0,0)"/>
<path d="M0 0 C3.55259358 0.13991379 4.76730738 0.75051091 7.21875 3.37890625 C7.9715625 4.42949219 8.724375 5.48007813 9.5 6.5625 C10.37256513 7.7530904 11.24768991 8.94180794 12.125 10.12890625 C12.81916016 11.07467529 12.81916016 11.07467529 13.52734375 12.03955078 C16.08321185 15.44200782 18.79730376 18.71387967 21.5 22 C26.35524811 27.93371912 31.07899769 33.94871507 35.73046875 40.04296875 C39.08685255 44.41608844 42.54012953 48.70863317 46 53 C53.58457292 62.43753276 61.08287192 71.94208167 68.5 81.51171875 C74.24872456 88.92822564 80.00946826 96.31841157 85.984375 103.5546875 C91.11076663 109.77391455 96.09810731 116.10263166 101.03515625 122.47265625 C103.90127532 126.1592945 106.78824161 129.82944712 109.67553711 133.49951172 C112.01980993 136.47937823 114.36173012 139.46097006 116.6953125 142.44921875 C122.12729938 149.39763944 127.64562612 156.26734911 133.22509766 163.09790039 C136.63563986 167.28559893 139.97573928 171.51753138 143.25 175.8125 C147.04181512 180.78426407 150.94851787 185.64076339 154.92578125 190.46484375 C157.34884284 193.42636347 159.70266007 196.43353078 162.02734375 199.47265625 C163.61636829 201.50849561 165.23450973 203.50545241 166.87890625 205.49609375 C167.38309082 206.11508545 167.88727539 206.73407715 168.40673828 207.37182617 C169.40981142 208.60255052 170.42223261 209.82572792 171.44482422 211.0402832 C174.30130101 214.5731361 175.26402627 216.50630147 175 221 C163.6474021 221.18554861 152.2951662 221.3276022 140.94135952 221.41449738 C135.66893813 221.45620841 130.39755579 221.51276132 125.12573242 221.60351562 C120.03577059 221.69058851 114.94680654 221.73830486 109.8561573 221.75901794 C107.91639563 221.77377379 105.9766872 221.80259042 104.03735161 221.84584045 C88.81827835 222.17167795 88.81827835 222.17167795 84.28289795 219.24913025 C82.50034734 217.23777186 81.2421645 215.37160362 80 213 C79.34773438 212.21753906 78.69546875 211.43507813 78.0234375 210.62890625 C73.87840492 205.432882 69.83479241 200.16604924 65.8125 194.875 C60.88574597 188.39477144 55.82734103 182.04156396 50.66967773 175.74414062 C46.49947707 170.64308596 42.46331124 165.45499267 38.46484375 160.21875 C31.81719395 151.51598235 24.99632304 142.95688207 18.0390625 134.5 C15.63350119 131.5506528 13.29499186 128.55501305 10.96875 125.54296875 C8.36835996 122.18413162 5.74767905 118.84144674 3.125 115.5 C2.63596191 114.87569092 2.14692383 114.25138184 1.64306641 113.6081543 C-0.56831612 110.70874742 -0.56831612 110.70874742 -3 108 C-3.28728699 103.46810805 -3.19256627 98.91519425 -3.1875 94.375 C-3.18789276 93.63921722 -3.18828552 92.90343445 -3.18869019 92.14535522 C-3.17731587 73.68241697 -2.6382536 55.22527006 -2.12982559 36.77075958 C-2.06228645 34.30470262 -1.99638187 31.8386061 -1.93075562 29.37249756 C-1.8255565 25.4429353 -1.7147465 21.51356949 -1.59943008 17.58429146 C-1.55673421 16.10891686 -1.51560291 14.63349612 -1.4760704 13.15803337 C-1.42107354 11.1251625 -1.35928463 9.09247873 -1.29711914 7.05981445 C-1.26380997 5.90931107 -1.23050079 4.75880768 -1.19618225 3.57344055 C-1 1 -1 1 0 0 Z " fill="#020202" transform="translate(99,100)"/>
<path d="M0 0 C1.32 0.33 2.64 0.66 4 1 C4.28152336 15.09982845 4.49170909 29.19921536 4.62174606 43.3012867 C4.68418239 49.85078 4.768763 56.39837594 4.90527344 62.94677734 C5.03636299 69.27527164 5.10755501 75.6019499 5.13852692 81.93169785 C5.1605762 84.33749844 5.2036356 86.74320766 5.26876068 89.14822769 C5.83455598 110.92312192 5.83455598 110.92312192 -1.8671875 119.33227539 C-3.851593 121.30588362 -5.90108689 123.14349045 -8 125 C-9.13482711 126.34155691 -10.24727052 127.70404815 -11.296875 129.11328125 C-11.71839844 129.65919922 -12.13992188 130.20511719 -12.57421875 130.76757812 C-12.96222656 131.27740234 -13.35023438 131.78722656 -13.75 132.3125 C-14.98060688 133.92644288 -16.21332899 135.52546617 -17.51092529 137.08627319 C-19.06514836 138.9989152 -19.06514836 138.9989152 -20.33892822 141.27468872 C-22.62635258 144.63743737 -24.80518465 147.41575899 -28.88762665 148.50247002 C-34.68838481 149.29335939 -40.53882338 149.03104276 -46.375 148.87890625 C-48.26925625 148.86210272 -50.16355184 148.84929979 -52.05786133 148.84031677 C-57.02371804 148.80608878 -61.98717395 148.71780483 -66.9520874 148.61798096 C-72.02632167 148.525615 -77.10094713 148.48474553 -82.17578125 148.43945312 C-92.11823757 148.34317106 -102.05891852 148.18973683 -112 148 C-111.24246098 143.36403681 -109.48564895 140.58934226 -106.5625 137 C-105.64168572 135.83743072 -104.72111929 134.67466509 -103.80078125 133.51171875 C-103.3310791 132.92438965 -102.86137695 132.33706055 -102.37744141 131.73193359 C-100.2994939 129.11921477 -98.27704867 126.46480747 -96.25 123.8125 C-91.58707857 117.74125091 -86.88313741 111.7020304 -82.17944336 105.66235352 C-78.70833473 101.20328124 -75.250946 96.73429508 -71.8125 92.25 C-68.03802083 87.33397103 -64.22271864 82.45238278 -60.38818359 77.58325195 C-49.79252935 64.12156009 -39.28797303 50.58556704 -28.91796875 36.94921875 C-22.60854445 28.65966398 -16.21141476 20.45538794 -9.6796875 12.33984375 C-6.40242996 8.2658856 -3.18893818 4.1433739 0 0 Z " fill="#020202" transform="translate(363,98)"/>
<path d="M0 0 C0.33 0 0.66 0 1 0 C1 20.46 1 40.92 1 62 C2.65 62.33 4.3 62.66 6 63 C6 65.97 6 68.94 6 72 C4.515 72.495 4.515 72.495 3 73 C-0.92129625 68.93122459 -1.48957906 66.35442535 -1.42578125 60.76171875 C-1.42285568 60.05559952 -1.41993011 59.34948029 -1.41691589 58.6219635 C-1.40188831 56.30980877 -1.35769542 53.99924548 -1.3125 51.6875 C-1.29547359 50.08562626 -1.27986484 48.48373687 -1.265625 46.88183594 C-1.09774229 31.25002552 -0.60598946 15.6203454 0 0 Z " fill="#4A4A4A" transform="translate(97,140)"/>
<path d="M0 0 C1.66611905 -0.042721 3.33382885 -0.04063832 5 0 C6 1 6 1 6.09765625 3.06640625 C6.08605469 3.89011719 6.07445312 4.71382813 6.0625 5.5625 C6.05347656 6.38878906 6.04445312 7.21507812 6.03515625 8.06640625 C6.01775391 9.02353516 6.01775391 9.02353516 6 10 C4.02 10 2.04 10 0 10 C-0.95024979 6.30458414 -0.95024979 3.69541586 0 0 Z " fill="#6D6D6D" transform="translate(164,260)"/>
<path d="M0 0 C1.65 0.33 3.3 0.66 5 1 C5 3.97 5 6.94 5 10 C4.01 10.33 3.02 10.66 2 11 C1.01 9.35 0.02 7.7 -1 6 C-0.01 5.01 0.98 4.02 2 3 C1.01 2.67 0.02 2.34 -1 2 C-0.67 1.34 -0.34 0.68 0 0 Z " fill="#6F6F6F" transform="translate(98,202)"/>
<path d="M0 0 C1.32 0 2.64 0 4 0 C4.49230769 6.4 4.49230769 6.4 2 9.4375 C1.01 10.2109375 1.01 10.2109375 0 11 C-0.125 8.125 -0.125 8.125 0 5 C0.66 4.34 1.32 3.68 2 3 C1.34 3 0.68 3 0 3 C0 2.01 0 1.02 0 0 Z " fill="#707070" transform="translate(363,202)"/>
<path d="M0 0 C1.65 0.33 3.3 0.66 5 1 C5 1.99 5 2.98 5 4 C3.02 4 1.04 4 -1 4 C-0.67 2.68 -0.34 1.36 0 0 Z " fill="#616161" transform="translate(231,317)"/>
<path d="M0 0 C1.32 0.33 2.64 0.66 4 1 C4 2.98 4 4.96 4 7 C2.68 7.33 1.36 7.66 0 8 C0 5.36 0 2.72 0 0 Z " fill="#404040" transform="translate(163,261)"/>
<path d="M0 0 C0.99 0.33 1.98 0.66 3 1 C0.69 3.31 -1.62 5.62 -4 8 C-4.66 7.67 -5.32 7.34 -6 7 C-4.02 4.69 -2.04 2.38 0 0 Z " fill="#333333" transform="translate(363,98)"/>
</svg>
